<?xml version="1.0" standalone="no"?>
<!DOCTYPE svg PUBLIC "-//W3C//DTD SVG 20010904//EN"
 "http://www.w3.org/TR/2001/REC-SVG-20010904/DTD/svg10.dtd">
<svg version="1.0" xmlns="http://www.w3.org/2000/svg"
 width="128.000000pt" height="128.000000pt" viewBox="0 0 128.000000 128.000000"
 preserveAspectRatio="xMidYMid meet">
<metadata>
Created by potrace 1.11, written by Peter Selinger 2001-2013
</metadata>
<g transform="translate(0.000000,128.000000) scale(0.100000,-0.100000)"
fill="#000000" stroke="none">
<path d="M315 945 c-25 -25 -58 -71 -73 -103 -22 -48 -27 -71 -27 -147 0 -118
21 -178 87 -250 90 -99 226 -144 399 -132 49 4 111 16 140 26 l51 20 11 -30
c6 -16 14 -29 18 -29 4 0 27 19 51 43 112 108 136 287 61 436 -71 140 -265
219 -470 191 -48 -6 -102 -18 -121 -26 -46 -19 -48 -18 -61 16 -5 17 -12 30
-15 30 -2 0 -25 -20 -51 -45z m483 -150 c-7 -15 -19 -25 -33 -25 -48 0 -91
-90 -66 -138 25 -46 95 -34 89 16 -2 21 -11 29 -35 37 -37 10 -39 14 -20 40
26 35 99 -4 113 -60 14 -56 -38 -115 -101 -115 -35 0 -82 25 -96 52 -17 31
-12 115 8 150 22 36 76 67 120 68 31 0 32 -1 21 -25z m-187 -77 c-7 -19 -17
-24 -60 -26 -49 -3 -51 -2 -51 22 0 25 2 26 60 26 57 0 59 -1 51 -22z m10 -97
c31 -31 36 -64 18 -105 -12 -25 -63 -56 -92 -56 -34 0 -79 24 -92 51 -21 40
-19 49 15 49 20 0 30 -5 30 -15 0 -19 36 -38 60 -30 25 8 37 50 20 70 -7 8
-28 15 -46 15 -30 0 -34 3 -34 25 0 23 4 25 46 25 37 0 51 -5 75 -29z m319
-18 c0 -13 5 -12 25 7 28 26 35 17 9 -11 -15 -17 -14 -20 6 -49 29 -41 16 -53
-15 -15 l-24 30 -1 -27 c0 -16 -4 -28 -10 -28 -6 0 -10 27 -10 61 0 37 4 58
10 54 6 -3 10 -13 10 -22z m100 -77 c0 -11 -19 -15 -25 -6 -3 5 1 10 9 10 9 0
16 -2 16 -4z"/>
</g>
</svg>
